<svg xmlns="http://www.w3.org/2000/svg" viewBox="0 0 64 64">
  <defs>
    <radialGradient id="sphere7" cx="24" cy="22" r="36" gradientUnits="userSpaceOnUse">
      <stop offset="0" stop-color="#ffffff"/>
      <stop offset="0.65" stop-color="#f5f5f5"/>
      <stop offset="1" stop-color="#d7d9dc"/>
    </radialGradient>
    <clipPath id="ballClip7"><circle cx="32" cy="32" r="30"/></clipPath>
  </defs>
  <circle cx="32" cy="32" r="31" fill="#0e8a4d"/>
  <g clip-path="url(#ballClip7)">
    <circle cx="32" cy="32" r="30" fill="url(#sphere7)"/>
    <!-- 파란 별 패턴 + 골드 테두리 -->
    <polygon points="32,5 38.46,23.1 57.68,23.66 42.46,35.4 47.87,53.84 32,43 16.13,53.84 21.54,35.4 6.32,23.66 25.54,23.1"
      fill="#1c3fa8" stroke="#c9a24b" stroke-width="1.3" stroke-linejoin="round"/>
    <circle cx="32" cy="32" r="4.2" fill="#c9a24b"/>
    <!-- 여백에 작은 골드 별 장식 -->
    <path d="M50 46 l1.3 2.8 3 .3-2.2 2 .6 3-2.7-1.6-2.7 1.6.6-3-2.2-2 3-.3z" fill="#c9a24b" opacity="0.9"/>
    <path d="M13 45 l1 2.2 2.4.2-1.8 1.6.5 2.4-2.1-1.3-2.1 1.3.5-2.4-1.8-1.6 2.4-.2z" fill="#c9a24b" opacity="0.9"/>
  </g>
  <circle cx="32" cy="32" r="30.5" fill="none" stroke="#0e8a4d" stroke-width="2.4"/>
  <ellipse cx="24" cy="18" rx="9" ry="6" fill="#ffffff" opacity="0.5"/>
</svg>
